# xmcd
#
# Track frame offsets:
# 150
# 17248
# 33746
# 49788
# 62970
# 80766
# 94003
# 105517
# 115210
# 145124
#
# Disc length: 2158 seconds
#
#
# Revision: 4
# Processed by: cddbd v1.5.2PL0 Copyright (c) Steve Scherf et al.
# Submitted via: FreeRIP 2.941 
#
DISCID=87086c0a
DTITLE=Willie Nelson - Willie Nelson - 1994 - Christmas With Willie Nelson
DYEAR=1994
DGENRE=Country
TTITLE0=Willie Nelson - Away In A Manger
TTITLE1=Willie Nelson - Deck The Halls
TTITLE2=Willie Nelson - It Came Upon A Midnight Clear
TTITLE3=Willie Nelson - Joy To The World
TTITLE4=Willie Nelson - The First Noel
TTITLE5=Willie Nelson - O Little Town Of Bethlehem
TTITLE6=Willie Nelson - O Come, All Ye Faithful
TTITLE7=Willie Nelson - We Wish You A Merry Christmas
TTITLE8=Willie Nelson - Silent Night
TTITLE9=Willie Nelson - Pretty Paper
EXTD=Escecutive producer: Shug Baggott\nProduced by: Larry Butler and Willie Nelson\nPfoduction assistance: Norbert Stovall and John Jonethis
EXTT0=
EXTT1=
EXTT2=
EXTT3=
EXTT4=
EXTT5=
EXTT6=
EXTT7=
EXTT8=
EXTT9=
PLAYORDER=
